<svg width="61" height="60" viewBox="0 0 61 60" fill="none" xmlns="http://www.w3.org/2000/svg">
<g clip-path="url(#clip0_725_6019)">
<path d="M18 12.5H43V17.5H48V7.5C48 4.75 45.75 2.525 43 2.525L18 2.5C15.25 2.5 13 4.75 13 7.5V17.5H18V12.5ZM39.025 41.475L50.5 30L39.025 18.525L35.5 22.075L43.425 30L35.5 37.925L39.025 41.475ZM25.5 37.925L17.575 30L25.5 22.075L21.975 18.525L10.5 30L21.975 41.475L25.5 37.925ZM43 47.5H18V42.5H13V52.5C13 55.25 15.25 57.5 18 57.5H43C45.75 57.5 48 55.25 48 52.5V42.5H43V47.5Z" fill="#F55951"/>
</g>
<defs>
<clipPath id="clip0_725_6019">
<rect width="60" height="60" fill="white" transform="translate(0.5)"/>
</clipPath>
</defs>
</svg>
