<svg width="60" height="60" viewBox="0 0 60 60" fill="none" xmlns="http://www.w3.org/2000/svg">
<g clip-path="url(#clip0_725_6022)">
<path d="M52.425 18.175C53.4 17.2 53.4 15.625 52.425 14.65L45.35 7.575C44.375 6.6 42.8 6.6 41.825 7.575L30.6 18.8L20.875 9.075C18.925 7.125 15.75 7.125 13.8 9.075L9.05 13.825C7.1 15.775 7.1 18.95 9.05 20.9L18.775 30.625L7.5 41.9V52.5H18.1L29.4 41.2L39.125 50.925C41.5 53.3 44.7 52.425 46.2 50.925L50.95 46.175C52.9 44.225 52.9 41.05 50.95 39.1L41.225 29.375L52.425 18.175ZM12.6 17.35L17.325 12.6L20.5 15.775L17.55 18.75L21.075 22.275L24.05 19.3L27.05 22.3L22.3 27.05L12.6 17.35ZM40.675 35.95L37.7 38.925L41.225 42.45L44.2 39.475L47.375 42.65L42.625 47.4L32.9 37.675L37.65 32.925L40.675 35.95ZM16.025 47.5H12.5V43.975L36.525 19.95L39.775 23.2L40.05 23.475L16.025 47.5ZM40.05 16.4L43.575 12.875L47.1 16.4L43.575 19.925L40.05 16.4Z" fill="#B1150D"/>
</g>
<defs>
<clipPath id="clip0_725_6022">
<rect width="60" height="60" fill="white"/>
</clipPath>
</defs>
</svg>
