<?xml version="1.0" standalone="no"?>
<!DOCTYPE svg PUBLIC "-//W3C//DTD SVG 20010904//EN"
 "http://www.w3.org/TR/2001/REC-SVG-20010904/DTD/svg10.dtd">
<svg version="1.0" xmlns="http://www.w3.org/2000/svg"
 width="190.000000pt" height="190.000000pt" viewBox="0 0 190.000000 190.000000"
 preserveAspectRatio="xMidYMid meet">
<metadata>
Created by potrace 1.14, written by Peter Selinger 2001-2017
</metadata>
<g transform="translate(0.000000,190.000000) scale(0.100000,-0.100000)"
fill="#000000" stroke="none">
<path d="M455 1320 c-80 -18 -168 -86 -204 -159 -10 -20 -24 -62 -31 -93 l-13
-58 -102 0 -101 0 0 -30 0 -30 102 0 102 0 6 -53 c14 -112 77 -203 176 -254
49 -25 65 -28 145 -28 99 1 152 18 213 70 60 51 112 160 112 237 0 27 1 28 55
28 l55 0 1 -57 c0 -32 0 -106 0 -165 l-1 -108 75 0 75 0 0 166 0 165 42 -3 41
-3 111 -160 111 -160 65 -3 66 -3 0 163 0 163 112 3 112 3 0 29 0 29 -112 3
-112 3 0 153 0 152 -73 0 -73 0 0 -155 0 -155 -48 0 -48 0 -105 153 -105 152
-67 3 -68 3 1 -143 c1 -79 1 -149 1 -155 -1 -9 -19 -13 -55 -13 l-54 0 -6 43
c-18 121 -112 232 -221 262 -41 11 -143 14 -180 5z m169 -148 c19 -10 42 -39
59 -71 47 -95 53 -91 -149 -91 l-176 0 7 33 c10 45 51 114 77 128 60 32 127
33 182 1z m520 -139 c19 -23 19 -23 -2 -23 -17 0 -22 6 -22 27 0 14 1 24 3 22
1 -2 11 -14 21 -26z m-437 -128 c-13 -94 -73 -156 -154 -160 -108 -6 -169 48
-188 163 l-7 42 177 0 178 0 -6 -45z m703 8 l0 -38 -25 30 c-31 38 -31 45 0
45 22 0 25 -4 25 -37z"/>
</g>
</svg>
