<svg xmlns="http://www.w3.org/2000/svg" version="1.1" xmlns:xlink="http://www.w3.org/1999/xlink" xmlns:svgjs="http://svgjs.com/svgjs" width="91" height="51"><svg width="91" height="51" viewBox="0 0 91 51" fill="none" xmlns="http://www.w3.org/2000/svg">
<path d="M42.7244 25.7273C42.7244 29.0582 42.093 31.892 40.8303 34.2287C39.5774 36.5653 37.8672 38.3501 35.6996 39.5831C33.5419 40.8061 31.1158 41.4176 28.4212 41.4176C25.7067 41.4176 23.2706 40.8011 21.1129 39.5682C18.9553 38.3352 17.25 36.5504 15.9972 34.2138C14.7443 31.8771 14.1179 29.0483 14.1179 25.7273C14.1179 22.3963 14.7443 19.5625 15.9972 17.2259C17.25 14.8892 18.9553 13.1094 21.1129 11.8864C23.2706 10.6534 25.7067 10.0369 28.4212 10.0369C31.1158 10.0369 33.5419 10.6534 35.6996 11.8864C37.8672 13.1094 39.5774 14.8892 40.8303 17.2259C42.093 19.5625 42.7244 22.3963 42.7244 25.7273ZM36.1768 25.7273C36.1768 23.5696 35.8537 21.75 35.2074 20.2685C34.571 18.7869 33.6712 17.6634 32.5078 16.8977C31.3445 16.1321 29.9822 15.7493 28.4212 15.7493C26.8601 15.7493 25.4979 16.1321 24.3345 16.8977C23.1712 17.6634 22.2663 18.7869 21.62 20.2685C20.9837 21.75 20.6655 23.5696 20.6655 25.7273C20.6655 27.8849 20.9837 29.7045 21.62 31.1861C22.2663 32.6676 23.1712 33.7912 24.3345 34.5568C25.4979 35.3224 26.8601 35.7053 28.4212 35.7053C29.9822 35.7053 31.3445 35.3224 32.5078 34.5568C33.6712 33.7912 34.571 32.6676 35.2074 31.1861C35.8537 29.7045 36.1768 27.8849 36.1768 25.7273ZM73.0574 10.4545V41H67.4792L54.1902 21.7749H53.9664V41H47.5083V10.4545H53.176L66.3606 29.6648H66.6291V10.4545H73.0574Z" fill="#F55951"></path>
<rect y="26" width="91" height="2" fill="#F55951"></rect>
</svg><style>@media (prefers-color-scheme: light) { :root { filter: none; } }
</style></svg>