<svg
  width="25"
  height="25"
  viewBox="0 0 25 25"
  fill="none"
  xmlns="http://www.w3.org/2000/svg"
>
  <path
    d="M16 20.5C17.25 20.5 18.3125 20.0625 19.1875 19.1875C20.0625 18.3125 20.5 17.25 20.5 16H19.375C19.375 16.9375 19.0469 17.7344 18.3906 18.3906C17.7344 19.0469 16.9375 19.375 16 19.375V20.5ZM4 8.5H5.125C5.125 7.5625 5.45312 6.76562 6.10938 6.10938C6.76562 5.45312 7.5625 5.125 8.5 5.125V4C7.25 4 6.1875 4.4375 5.3125 5.3125C4.4375 6.1875 4 7.25 4 8.5ZM5.89375 18.6063C4.68125 17.3938 4.075 15.9375 4.075 14.2375C4.075 12.5375 4.68125 11.0812 5.89375 9.86875L8.66875 7.075C8.99375 6.75 9.39062 6.5875 9.85938 6.5875C10.3281 6.5875 10.725 6.75 11.05 7.075C11.1 7.1125 11.1562 7.175 11.2188 7.2625L11.4062 7.525L13.5812 5.35C13.9062 5.025 14.3031 4.8625 14.7719 4.8625C15.2406 4.8625 15.6375 5.025 15.9625 5.35C16.0375 5.4375 16.1031 5.525 16.1594 5.6125C16.2156 5.7 16.2562 5.775 16.2812 5.8375C16.5937 5.525 16.9781 5.375 17.4344 5.3875C17.8906 5.4 18.2813 5.56875 18.6063 5.89375C18.8563 6.14375 19.0063 6.45312 19.0563 6.82187C19.1063 7.19062 19.05 7.55625 18.8875 7.91875C18.9875 7.95625 19.0813 8.00625 19.1688 8.06875C19.2563 8.13125 19.3375 8.2 19.4125 8.275C19.7375 8.6 19.9 8.99688 19.9 9.46563C19.9 9.93438 19.7375 10.3312 19.4125 10.6562L18.9437 11.125C19.0312 11.1625 19.1156 11.2125 19.1969 11.275C19.2781 11.3375 19.35 11.4 19.4125 11.4625C19.7375 11.7875 19.9031 12.1844 19.9094 12.6531C19.9156 13.1219 19.75 13.5187 19.4125 13.8438L14.6313 18.6063C13.4188 19.8188 11.9625 20.425 10.2625 20.425C8.5625 20.425 7.10625 19.8188 5.89375 18.6063V18.6063ZM6.68125 17.8187C7.18125 18.3187 7.74063 18.6906 8.35938 18.9344C8.97812 19.1781 9.6125 19.3 10.2625 19.3C10.9125 19.3 11.5469 19.1781 12.1656 18.9344C12.7844 18.6906 13.3437 18.3187 13.8438 17.8187L18.6063 13.0375C18.7188 12.925 18.775 12.7906 18.775 12.6344C18.775 12.4781 18.7188 12.35 18.6063 12.25C18.4938 12.1375 18.3625 12.0812 18.2125 12.0812C18.0625 12.0812 17.9312 12.1375 17.8187 12.25L15.175 14.8937L14.3687 14.1063L18.6063 9.86875C18.7188 9.75625 18.775 9.62188 18.775 9.46563C18.775 9.30938 18.7188 9.175 18.6063 9.0625C18.4938 8.95 18.3625 8.89375 18.2125 8.89375C18.0625 8.89375 17.9312 8.95 17.8187 9.0625L14.1063 12.775L13.3188 11.9875L17.8187 7.46875C17.9312 7.35625 17.9844 7.22188 17.9781 7.06563C17.9719 6.90938 17.9187 6.78125 17.8187 6.68125C17.7062 6.56875 17.575 6.5125 17.425 6.5125C17.275 6.5125 17.1438 6.56875 17.0312 6.68125L12.5125 11.1812L11.725 10.3937L15.175 6.94375C15.2875 6.83125 15.3406 6.69687 15.3344 6.54062C15.3281 6.38437 15.275 6.25625 15.175 6.15625C15.0625 6.04375 14.9281 5.9875 14.7719 5.9875C14.6156 5.9875 14.4812 6.04375 14.3687 6.15625L9.41875 11.1063C9.68125 11.7563 9.7625 12.4188 9.6625 13.0938C9.5625 13.7687 9.275 14.3687 8.8 14.8937L8.0125 14.1063C8.4125 13.6438 8.6125 13.1125 8.6125 12.5125C8.6125 11.9125 8.4125 11.3813 8.0125 10.9188L10.2625 8.66875C10.375 8.55625 10.4281 8.42187 10.4219 8.26562C10.4156 8.10938 10.3625 7.98125 10.2625 7.88125C10.15 7.76875 10.0187 7.7125 9.86875 7.7125C9.71875 7.7125 9.5875 7.76875 9.475 7.88125L6.68125 10.6562C6.18125 11.1563 5.80938 11.7156 5.56563 12.3344C5.32188 12.9531 5.2 13.5875 5.2 14.2375C5.2 14.8875 5.32188 15.5219 5.56563 16.1406C5.80938 16.7594 6.18125 17.3187 6.68125 17.8187Z"
    fill="white"
  />
</svg>
