<svg
  width="161"
  height="86"
  viewBox="0 0 161 86"
  fill="none"
  xmlns="http://www.w3.org/2000/svg"
>
  <path
    d="M6.75193 41.7898H5.87562V42.3614L6.39878 42.5918L6.75193 41.7898ZM6.75193 32.9157L6.39878 32.1137L5.87562 32.3441V32.9157H6.75193ZM42.2481 17.2853H43.1244V15.9419L41.8949 16.4833L42.2481 17.2853ZM42.2481 27.4955L42.5745 28.3087L43.1244 28.088V27.4955H42.2481ZM17.9453 37.2519L17.2002 36.7907L15.796 39.059L18.2718 38.0651L17.9453 37.2519ZM18.273 36.7225H19.1494V33.6421L17.528 36.2612L18.273 36.7225ZM18.273 37.983L17.528 38.4442L19.1494 41.0634V37.983H18.273ZM17.9453 37.4536L18.2718 36.6404L15.796 35.6464L17.2002 37.9148L17.9453 37.4536ZM42.2481 47.21H43.1244V46.6175L42.5745 46.3968L42.2481 47.21ZM42.2481 57.4202L41.8949 58.2222L43.1244 58.7635V57.4202H42.2481ZM7.62823 41.7898V32.9157H5.87562V41.7898H7.62823ZM7.10508 33.7177L42.6012 18.0873L41.8949 16.4833L6.39878 32.1137L7.10508 33.7177ZM41.3718 17.2853V27.4955H43.1244V17.2853H41.3718ZM41.9216 26.6823L17.6188 36.4387L18.2718 38.0651L42.5745 28.3087L41.9216 26.6823ZM18.6904 37.7131L19.0181 37.1837L17.528 36.2612L17.2002 36.7907L18.6904 37.7131ZM17.3967 36.7225V37.983H19.1494V36.7225H17.3967ZM19.0181 37.5218L18.6904 36.9923L17.2002 37.9148L17.528 38.4442L19.0181 37.5218ZM17.6188 38.2668L41.9216 48.0232L42.5745 46.3968L18.2718 36.6404L17.6188 38.2668ZM41.3718 47.21V57.4202H43.1244V47.21H41.3718ZM42.6012 56.6182L7.10508 40.9878L6.39878 42.5918L41.8949 58.2222L42.6012 56.6182Z"
    fill="#F8B3B8"
  />
  <g clip-path="url(#clip0_605_6458)">
    <path
      d="M66.4934 54.5667H57.3672V45.4404L85.869 16.9387L94.9952 26.0649L66.4934 54.5667ZM102.953 15.1167C103.781 15.9441 103.781 17.2795 102.953 18.1069L98.5081 22.552L89.3819 13.4258L93.827 8.98066C94.6544 8.15326 95.9898 8.15326 96.8172 8.98066L102.953 15.1167Z"
      stroke="#F8B3B8"
    />
  </g>
  <path
    d="M154.182 33.2102H155.058V32.6386L154.535 32.4082L154.182 33.2102ZM154.182 42.0843L154.535 42.8863L155.058 42.6559V42.0843H154.182ZM118.686 57.7147H117.809V59.0581L119.039 58.5167L118.686 57.7147ZM118.686 47.5045L118.359 46.6913L117.809 46.912V47.5045H118.686ZM142.988 37.7481L143.733 38.2093L145.138 35.941L142.662 36.9349L142.988 37.7481ZM142.661 38.2775H141.784V41.3579L143.406 38.7388L142.661 38.2775ZM142.661 37.017L143.406 36.5558L141.784 33.9366V37.017H142.661ZM142.988 37.5464L142.662 38.3596L145.138 39.3536L143.733 37.0852L142.988 37.5464ZM118.686 27.79H117.809V28.3825L118.359 28.6032L118.686 27.79ZM118.686 17.5798L119.039 16.7778L117.809 16.2365V17.5798H118.686ZM153.305 33.2102V42.0843H155.058V33.2102H153.305ZM153.829 41.2823L118.332 56.9127L119.039 58.5167L154.535 42.8863L153.829 41.2823ZM119.562 57.7147V47.5045H117.809V57.7147H119.562ZM119.012 48.3177L143.315 38.5613L142.662 36.9349L118.359 46.6913L119.012 48.3177ZM142.243 37.2869L141.915 37.8163L143.406 38.7388L143.733 38.2093L142.243 37.2869ZM143.537 38.2775V37.017H141.784V38.2775H143.537ZM141.915 37.4782L142.243 38.0077L143.733 37.0852L143.406 36.5558L141.915 37.4782ZM143.315 36.7332L119.012 26.9768L118.359 28.6032L142.662 38.3596L143.315 36.7332ZM119.562 27.79V17.5798H117.809V27.79H119.562ZM118.332 18.3818L153.829 34.0122L154.535 32.4082L119.039 16.7778L118.332 18.3818Z"
    fill="#F8B3B8"
  />
  <defs>
    <clipPath id="clip0_605_6458">
      <rect
        width="62.9333"
        height="62.9333"
        fill="white"
        transform="translate(49)"
      />
    </clipPath>
  </defs>
</svg>
