<svg
  width="168"
  height="168"
  viewBox="0 0 168 168"
  fill="none"
  xmlns="http://www.w3.org/2000/svg"
>
  <g clip-path="url(#clip0_605_6938)">
    <path
      d="M140 126.875H167.125V139.125H0.875V126.875H28V126V125.125C20.7161 125.125 14.875 119.22 14.875 112V42C14.875 34.7132 20.7132 28.875 28 28.875H140C147.219 28.875 153.125 34.7156 153.125 41.9991C153.125 41.9994 153.125 41.9997 153.125 42L153.055 111.999V112C153.055 119.222 147.211 125.125 140 125.125V126V126.875ZM27.125 112V112.874L27.9995 112.875L139.999 112.945L140.875 112.946V112.07V112V42V41.125H140H28H27.125V42V112ZM94.7951 81.47L94.405 82.0652L94.9082 82.5684L111.663 99.3237L106.216 104.771L89.4115 87.9739L88.9141 87.4767L88.3216 87.8555C84.9582 90.0056 80.9972 91.2947 76.7249 91.2947C64.8041 91.2947 55.1019 81.5925 55.1019 69.6717C55.1019 57.7513 64.8038 48.0557 76.7249 48.0557C88.6457 48.0557 98.3409 57.751 98.3409 69.6717C98.3409 74.0211 97.0238 78.0697 94.7951 81.47ZM76.7249 55.7487C69.0453 55.7487 62.8019 61.9998 62.8019 69.6717C62.8019 77.3436 69.0453 83.5947 76.7249 83.5947C84.3971 83.5947 90.6479 77.344 90.6479 69.6717C90.6479 61.9995 84.3971 55.7487 76.7249 55.7487Z"
      stroke="#F8B3B8"
      strokeWidth="1.75"
    />
  </g>
  <defs>
    <clipPath id="clip0_605_6938">
      <rect width="168" height="168" fill="white" />
    </clipPath>
  </defs>
</svg>
