<svg
  width="195"
  height="195"
  viewBox="0 0 195 195"
  fill="none"
  xmlns="http://www.w3.org/2000/svg"
>
  <g clip-path="url(#clip0_605_7200)">
    <path
      d="M124.711 93.4687C124.711 101.139 119.911 107.932 114.842 114.522C114.484 114.988 114.124 115.452 113.766 115.916C111.621 118.688 109.502 121.427 107.852 124.122C106.123 126.947 104.841 129.827 104.597 132.773H90.4033C90.1594 129.827 88.8772 126.947 87.1476 124.122C85.498 121.427 83.3787 118.688 81.2345 115.916C80.8757 115.452 80.5163 114.988 80.1582 114.522C75.0885 107.932 70.2891 101.139 70.2891 93.4687C70.2891 78.4646 82.496 66.2577 97.5 66.2577C112.504 66.2577 124.711 78.4646 124.711 93.4687ZM90.4453 152.93V142.851H104.555V152.93H90.4453ZM147.376 49.0494L154.497 41.9278C168.493 56.2794 177.117 75.8879 177.117 97.4999C177.117 119.112 168.493 138.72 154.497 153.072L147.376 145.95C159.556 133.413 167.039 116.283 167.039 97.4999C167.039 78.7171 159.556 61.5873 147.376 49.0494ZM47.6243 49.0494C35.4435 61.5873 27.9609 78.7171 27.9609 97.4999C27.9609 116.283 35.4435 133.413 47.6243 145.95L40.5026 153.072C26.5072 138.72 17.8828 119.112 17.8828 97.4999C17.8828 75.8879 26.5072 56.2794 40.5026 41.9278L47.6243 49.0494ZM137.403 135.978L130.277 128.852C138.027 120.68 142.852 109.675 142.852 97.4999C142.852 85.3253 138.027 74.32 130.277 66.148L137.403 59.0222C147.043 69.0162 152.93 82.5776 152.93 97.4999C152.93 112.422 147.043 125.984 137.403 135.978ZM52.1484 97.4999C52.1484 109.671 56.8938 120.679 64.7194 128.855L57.5971 135.978C47.9574 125.984 42.0703 112.422 42.0703 97.4999C42.0703 82.5776 47.9574 69.0162 57.5971 59.0222L64.7228 66.148C56.9725 74.32 52.1484 85.3253 52.1484 97.4999Z"
      stroke="#F8B3B8"
      strokeWidth="2.01562"
    />
  </g>
  <defs>
    <clipPath id="clip0_605_7200">
      <rect
        width="193.5"
        height="193.5"
        fill="white"
        transform="translate(0.75 0.75)"
      />
    </clipPath>
  </defs>
</svg>
