<svg
  width="125"
  height="125"
  viewBox="0 0 125 125"
  fill="none"
  xmlns="http://www.w3.org/2000/svg"
>
  <path
    d="M80.0794 59.8958C80.0794 64.8505 76.979 69.2388 73.704 73.4963C73.4727 73.797 73.2405 74.0971 73.0087 74.3967C71.6236 76.1873 70.2545 77.957 69.1889 79.6975C68.0716 81.5224 67.2433 83.3832 67.0857 85.2864H57.9169C57.7593 83.3832 56.931 81.5224 55.8137 79.6975C54.7481 77.9569 53.379 76.1872 51.9938 74.3967C51.7621 74.0971 51.5299 73.797 51.2986 73.4963C48.0236 69.2388 44.9232 64.8505 44.9232 59.8958C44.9232 50.2033 52.8088 42.3177 62.5013 42.3177C72.1938 42.3177 80.0794 50.2033 80.0794 59.8958ZM57.944 98.3073V91.7968H67.0586V98.3073H57.944ZM94.7208 31.2012L99.3213 26.6007C108.362 35.8717 113.934 48.5387 113.934 62.5C113.934 76.4612 108.362 89.1282 99.3213 98.3993L94.7208 93.7987C102.589 85.6993 107.423 74.6336 107.423 62.5C107.423 50.3664 102.589 39.3006 94.7208 31.2012ZM17.5794 62.5C17.5794 74.6336 22.4131 85.6993 30.2818 93.7987L25.6813 98.3993C16.6403 89.1282 11.069 76.4612 11.069 62.5C11.069 48.5387 16.6403 35.8717 25.6813 26.6007L30.2818 31.2012C22.4131 39.3006 17.5794 50.3664 17.5794 62.5ZM88.2784 87.3564L83.6752 82.7532C88.6818 77.4741 91.7982 70.3647 91.7982 62.5C91.7982 54.6352 88.6818 47.5259 83.6752 42.2468L88.2784 37.6436C94.5056 44.0996 98.3086 52.8603 98.3086 62.5C98.3086 72.1397 94.5056 80.9003 88.2784 87.3564ZM26.694 62.5C26.694 52.8603 30.497 44.0996 36.7242 37.6436L41.3274 42.2468C36.3208 47.5259 33.2044 54.6352 33.2044 62.5C33.2044 70.3622 36.2699 77.4734 41.3252 82.7554L36.7242 87.3564C30.497 80.9003 26.694 72.1397 26.694 62.5Z"
    stroke="#F8B3B8"
    strokeWidth="1.30208"
  />
</svg>
