<svg
  width="148"
  height="67"
  viewBox="0 0 148 67"
  fill="none"
  xmlns="http://www.w3.org/2000/svg"
>
  <path
    d="M29.0024 4.8002V4.11791H28.3201V4.8002H29.0024ZM37.5017 4.8002H38.184V4.11791H37.5017V4.8002ZM35.4014 38.601L34.8259 38.2345L34.8244 38.2369L35.4014 38.601ZM29.5717 43.7438L29.8704 44.3572L29.873 44.3559L29.5717 43.7438ZM12.0824 43.7438L11.7811 44.3559L11.7837 44.3572L12.0824 43.7438ZM6.25265 38.601L5.67562 38.9651L6.25265 38.601ZM4.172 4.8002V4.11791H3.48971V4.8002H4.172ZM12.6713 4.8002H13.3536V4.11791H12.6713V4.8002ZM13.6723 34.263L13.0771 34.5966L13.0799 34.6016L13.6723 34.263ZM16.5381 37.07L16.2079 37.667L16.5381 37.07ZM25.1356 37.07L24.8053 36.4729L24.8026 36.4744L25.1356 37.07ZM27.9817 34.263L27.3893 33.9245L27.3865 33.9295L27.9817 34.263ZM29.0024 5.48249H37.5017V4.11791H29.0024V5.48249ZM36.8194 4.8002V30.9065H38.184V4.8002H36.8194ZM36.8194 30.9065C36.8194 33.7246 36.1479 36.1588 34.8259 38.2345L35.9769 38.9675C37.4553 36.6463 38.184 33.9509 38.184 30.9065H36.8194ZM34.8244 38.2369C33.5094 40.3211 31.6652 41.953 29.2704 43.1316L29.873 44.3559C32.477 43.0744 34.5193 41.2778 35.9785 38.9651L34.8244 38.2369ZM29.273 43.1303C26.8831 44.294 24.0772 44.8869 20.8369 44.8869V46.2515C24.2441 46.2515 27.2614 45.6275 29.8704 44.3572L29.273 43.1303ZM20.8369 44.8869C17.583 44.8869 14.7706 44.2938 12.3811 43.1303L11.7837 44.3572C14.393 45.6277 17.4169 46.2515 20.8369 46.2515V44.8869ZM12.3837 43.1316C9.98892 41.953 8.1447 40.3211 6.82968 38.2369L5.67562 38.9651C7.13481 41.2778 9.17709 43.0744 11.7811 44.3559L12.3837 43.1316ZM6.82968 38.2369C5.51985 36.161 4.85429 33.7258 4.85429 30.9065H3.48971C3.48971 33.9497 4.21125 36.6442 5.67562 38.9651L6.82968 38.2369ZM4.85429 30.9065V4.8002H3.48971V30.9065H4.85429ZM4.172 5.48249H12.6713V4.11791H4.172V5.48249ZM11.989 4.8002V30.1803H13.3536V4.8002H11.989ZM11.989 30.1803C11.989 31.8136 12.346 33.292 13.0771 34.5966L14.2675 33.9295C13.6639 32.8525 13.3536 31.609 13.3536 30.1803H11.989ZM13.0799 34.6016C13.8241 35.9037 14.8713 36.9276 16.2079 37.667L16.8684 36.4729C15.7449 35.8514 14.8816 35.004 14.2647 33.9245L13.0799 34.6016ZM16.2079 37.667C17.5545 38.4119 19.1046 38.773 20.8369 38.773V37.4084C19.2976 37.4084 17.982 37.0889 16.8684 36.4729L16.2079 37.667ZM20.8369 38.773C22.5809 38.773 24.1327 38.4124 25.4685 37.6655L24.8026 36.4744C23.7045 37.0884 22.3904 37.4084 20.8369 37.4084V38.773ZM25.4658 37.667C26.8035 36.927 27.8456 35.9016 28.5769 34.5966L27.3865 33.9295C26.7832 35.0061 25.9277 35.852 24.8053 36.4729L25.4658 37.667ZM28.5741 34.6016C29.3201 33.296 29.6847 31.8159 29.6847 30.1803H28.3201C28.3201 31.6067 28.0043 32.8484 27.3893 33.9245L28.5741 34.6016ZM29.6847 30.1803V4.8002H28.3201V30.1803H29.6847ZM52.4638 4.8002L53.051 4.45276L52.8528 4.11791H52.4638V4.8002ZM60.5705 18.5011L59.9833 18.8486L60.1814 19.1834H60.5705V18.5011ZM60.8845 18.5011V19.1834H61.2726L61.471 18.8498L60.8845 18.5011ZM69.0305 4.8002V4.11791H68.6424L68.444 4.45152L69.0305 4.8002ZM78.629 4.8002L79.2113 5.15566L79.8447 4.11791H78.629V4.8002ZM66.361 24.9001L65.7786 24.5446L65.5592 24.9041L65.7821 25.2613L66.361 24.9001ZM78.9038 45V45.6823H80.1338L79.4826 44.6388L78.9038 45ZM69.1286 45L68.5438 45.3514L68.7426 45.6823H69.1286V45ZM60.8845 31.2795L61.4694 30.9281L61.2705 30.5972H60.8845V31.2795ZM60.5705 31.2795V30.5972H60.1844L59.9856 30.9281L60.5705 31.2795ZM52.3264 45V45.6823H52.7124L52.9112 45.3514L52.3264 45ZM42.5905 45L42.0121 44.638L41.3584 45.6823H42.5905V45ZM55.1725 24.9001L55.7509 25.2621L55.9754 24.9035L55.7539 24.543L55.1725 24.9001ZM42.826 4.8002V4.11791H41.6062L42.2447 5.15732L42.826 4.8002ZM51.8766 5.14764L59.9833 18.8486L61.1577 18.1537L53.051 4.45276L51.8766 5.14764ZM60.5705 19.1834H60.8845V17.8188H60.5705V19.1834ZM61.471 18.8498L69.617 5.14889L68.444 4.45152L60.2981 18.1524L61.471 18.8498ZM69.0305 5.48249H78.629V4.11791H69.0305V5.48249ZM78.0466 4.44474L65.7786 24.5446L66.9434 25.2556L79.2113 5.15566L78.0466 4.44474ZM65.7821 25.2613L78.3249 45.3612L79.4826 44.6388L66.9398 24.5389L65.7821 25.2613ZM78.9038 44.3177H69.1286V45.6823H78.9038V44.3177ZM69.7135 44.6486L61.4694 30.9281L60.2997 31.6309L68.5438 45.3514L69.7135 44.6486ZM60.8845 30.5972H60.5705V31.9618H60.8845V30.5972ZM59.9856 30.9281L51.7415 44.6486L52.9112 45.3514L61.1553 31.6309L59.9856 30.9281ZM52.3264 44.3177H42.5905V45.6823H52.3264V44.3177ZM43.1688 45.362L55.7509 25.2621L54.5942 24.5381L42.0121 44.638L43.1688 45.362ZM55.7539 24.543L43.4074 4.44309L42.2447 5.15732L54.5912 25.2572L55.7539 24.543ZM42.826 5.48249H52.4638V4.11791H42.826V5.48249Z"
    fill="#F8B3B8"
  />
  <path
    d="M119.821 13.8002V13.1179H119.139V13.8002H119.821ZM128.321 13.8002H129.003V13.1179H128.321V13.8002ZM126.22 47.601L125.645 47.2345L125.643 47.2369L126.22 47.601ZM120.391 52.7438L120.689 53.3572L120.692 53.3559L120.391 52.7438ZM102.901 52.7438L102.6 53.3559L102.603 53.3572L102.901 52.7438ZM97.0716 47.601L96.4946 47.9651L97.0716 47.601ZM94.991 13.8002V13.1179H94.3087V13.8002H94.991ZM103.49 13.8002H104.173V13.1179H103.49V13.8002ZM104.491 43.263L103.896 43.5966L103.899 43.6016L104.491 43.263ZM107.357 46.07L107.027 46.667L107.357 46.07ZM115.955 46.07L115.624 45.4729L115.622 45.4744L115.955 46.07ZM118.801 43.263L118.208 42.9245L118.206 42.9295L118.801 43.263ZM119.821 14.4825H128.321V13.1179H119.821V14.4825ZM127.638 13.8002V39.9065H129.003V13.8002H127.638ZM127.638 39.9065C127.638 42.7246 126.967 45.1588 125.645 47.2345L126.796 47.9675C128.274 45.6463 129.003 42.9509 129.003 39.9065H127.638ZM125.643 47.2369C124.328 49.3211 122.484 50.953 120.089 52.1316L120.692 53.3559C123.296 52.0744 125.338 50.2778 126.797 47.9651L125.643 47.2369ZM120.092 52.1303C117.702 53.294 114.896 53.8869 111.656 53.8869V55.2515C115.063 55.2515 118.08 54.6275 120.689 53.3572L120.092 52.1303ZM111.656 53.8869C108.402 53.8869 105.59 53.2938 103.2 52.1303L102.603 53.3572C105.212 54.6277 108.236 55.2515 111.656 55.2515V53.8869ZM103.203 52.1316C100.808 50.953 98.9637 49.3211 97.6487 47.2369L96.4946 47.9651C97.9538 50.2778 99.9961 52.0744 102.6 53.3559L103.203 52.1316ZM97.6487 47.2369C96.3388 45.161 95.6733 42.7258 95.6733 39.9065H94.3087C94.3087 42.9497 95.0302 45.6442 96.4946 47.9651L97.6487 47.2369ZM95.6733 39.9065V13.8002H94.3087V39.9065H95.6733ZM94.991 14.4825H103.49V13.1179H94.991V14.4825ZM102.808 13.8002V39.1802H104.173V13.8002H102.808ZM102.808 39.1802C102.808 40.8136 103.165 42.292 103.896 43.5966L105.087 42.9295C104.483 41.8525 104.173 40.609 104.173 39.1802H102.808ZM103.899 43.6016C104.643 44.9037 105.69 45.9276 107.027 46.667L107.687 45.4729C106.564 44.8514 105.701 44.004 105.084 42.9245L103.899 43.6016ZM107.027 46.667C108.373 47.4119 109.924 47.773 111.656 47.773V46.4084C110.117 46.4084 108.801 46.0889 107.687 45.4729L107.027 46.667ZM111.656 47.773C113.4 47.773 114.952 47.4124 116.288 46.6655L115.622 45.4744C114.523 46.0884 113.209 46.4084 111.656 46.4084V47.773ZM116.285 46.667C117.622 45.927 118.665 44.9016 119.396 43.5966L118.206 42.9295C117.602 44.0061 116.747 44.852 115.624 45.4729L116.285 46.667ZM119.393 43.6016C120.139 42.296 120.504 40.8159 120.504 39.1802H119.139C119.139 40.6067 118.823 41.8484 118.208 42.9245L119.393 43.6016ZM120.504 39.1802V13.8002H119.139V39.1802H120.504ZM143.813 13.8002H144.495V13.1179H143.813V13.8002ZM143.813 54V54.6823H144.495V54H143.813ZM135.313 54H134.631V54.6823H135.313V54ZM135.313 13.8002V13.1179H134.631V13.8002H135.313ZM143.13 13.8002V54H144.495V13.8002H143.13ZM143.813 53.3177H135.313V54.6823H143.813V53.3177ZM135.996 54V13.8002H134.631V54H135.996ZM135.313 14.4825H143.813V13.1179H135.313V14.4825Z"
    fill="#F8B3B8"
  />
</svg>
