<svg
  width="115"
  height="79"
  viewBox="0 0 115 79"
  fill="none"
  xmlns="http://www.w3.org/2000/svg"
>
  <path
    d="M6.25595 48.088H5.44983V48.6138L5.93109 48.8258L6.25595 48.088ZM6.25595 39.9247L5.93109 39.1869L5.44983 39.3988V39.9247H6.25595ZM38.9093 25.5461H39.7154V24.3103L38.5844 24.8083L38.9093 25.5461ZM38.9093 34.9385L39.2096 35.6866L39.7154 35.4836V34.9385H38.9093ZM16.5529 43.9136L15.8675 43.4893L14.5757 45.576L16.8532 44.6617L16.5529 43.9136ZM16.8544 43.4266H17.6605V40.5928L16.169 43.0022L16.8544 43.4266ZM16.8544 44.5861L16.169 45.0104L17.6605 47.4198V44.5861H16.8544ZM16.5529 44.0991L16.8532 43.351L14.5757 42.4367L15.8675 44.5234L16.5529 44.0991ZM38.9093 53.0741H39.7154V52.5291L39.2096 52.326L38.9093 53.0741ZM38.9093 62.4666L38.5844 63.2044L39.7154 63.7024V62.4666H38.9093ZM7.06208 48.088V39.9247H5.44983V48.088H7.06208ZM6.58082 40.6624L39.2342 26.2838L38.5844 24.8083L5.93109 39.1869L6.58082 40.6624ZM38.1032 25.5461V34.9385H39.7154V25.5461H38.1032ZM38.609 34.1905L16.2526 43.1655L16.8532 44.6617L39.2096 35.6866L38.609 34.1905ZM17.2383 44.3379L17.5398 43.8509L16.169 43.0022L15.8675 43.4893L17.2383 44.3379ZM16.0482 43.4266V44.5861H17.6605V43.4266H16.0482ZM17.5398 44.1618L17.2383 43.6748L15.8675 44.5234L16.169 45.0104L17.5398 44.1618ZM16.2526 44.8472L38.609 53.8222L39.2096 52.326L16.8532 43.351L16.2526 44.8472ZM38.1032 53.0741V62.4666H39.7154V53.0741H38.1032ZM39.2342 61.7288L6.58082 47.3502L5.93109 48.8258L38.5844 63.2044L39.2342 61.7288ZM69.4058 13.2779L70.1842 13.4874L70.4576 12.4718H69.4058V13.2779ZM54.0996 70.1429V70.949H54.7174L54.878 70.3524L54.0996 70.1429ZM45.5884 70.1429L44.81 69.9334L44.5366 70.949H45.5884V70.1429ZM60.8946 13.2779V12.4718H60.2768L60.1162 13.0684L60.8946 13.2779ZM68.6274 13.0684L53.3212 69.9334L54.878 70.3524L70.1842 13.4874L68.6274 13.0684ZM54.0996 69.3368H45.5884V70.949H54.0996V69.3368ZM46.3668 70.3524L61.673 13.4874L60.1162 13.0684L44.81 69.9334L46.3668 70.3524ZM60.8946 14.084H69.4058V12.4718H60.8946V14.084ZM108.744 48.088L109.069 48.8258L109.55 48.6138V48.088H108.744ZM76.0907 62.4666H75.2846V63.7024L76.4156 63.2044L76.0907 62.4666ZM76.0907 53.0741L75.7904 52.326L75.2846 52.5291V53.0741H76.0907ZM98.4471 44.0991L99.1325 44.5234L100.424 42.4367L98.1468 43.351L98.4471 44.0991ZM98.1456 44.5861H97.3395V47.4198L98.831 45.0104L98.1456 44.5861ZM98.1456 43.4266L98.831 43.0022L97.3395 40.5928V43.4266H98.1456ZM98.4471 43.9136L98.1468 44.6617L100.424 45.576L99.1325 43.4893L98.4471 43.9136ZM76.0907 34.9385H75.2846V35.4836L75.7904 35.6866L76.0907 34.9385ZM76.0907 25.5461L76.4156 24.8083L75.2846 24.3103V25.5461H76.0907ZM108.744 39.9247H109.55V39.3988L109.069 39.1869L108.744 39.9247ZM108.419 47.3502L75.7658 61.7288L76.4156 63.2044L109.069 48.8258L108.419 47.3502ZM76.8968 62.4666V53.0741H75.2846V62.4666H76.8968ZM76.391 53.8222L98.7474 44.8472L98.1468 43.351L75.7904 52.326L76.391 53.8222ZM97.7617 43.6748L97.4602 44.1618L98.831 45.0104L99.1325 44.5234L97.7617 43.6748ZM98.9518 44.5861V43.4266H97.3395V44.5861H98.9518ZM97.4602 43.8509L97.7617 44.3379L99.1325 43.4893L98.831 43.0022L97.4602 43.8509ZM98.7474 43.1655L76.391 34.1905L75.7904 35.6866L98.1468 44.6617L98.7474 43.1655ZM76.8968 34.9385V25.5461H75.2846V34.9385H76.8968ZM75.7658 26.2838L108.419 40.6624L109.069 39.1869L76.4156 24.8083L75.7658 26.2838ZM107.938 39.9247V48.088H109.55V39.9247H107.938Z"
    fill="#F8B3B8"
  />
</svg>
